<svg width="600" height="200" viewBox="0 0 600 200" fill="none" xmlns="http://www.w3.org/2000/svg">
  <!-- Nexus Icon -->
  <g transform="translate(80, 100)">
    <circle cx="0" cy="0" r="12" fill="#000000"/>
    
        <line x1="0" y1="0" x2="32" y2="0" stroke="#000000" stroke-width="4" opacity="0.6"/>
        <circle cx="32" cy="0" r="7" fill="#000000"/>
      
        <line x1="0" y1="0" x2="16.000000000000004" y2="27.712812921102035" stroke="#000000" stroke-width="4" opacity="0.6"/>
        <circle cx="16.000000000000004" cy="27.712812921102035" r="7" fill="#000000"/>
      
        <line x1="0" y1="0" x2="-15.999999999999993" y2="27.71281292110204" stroke="#000000" stroke-width="4" opacity="0.6"/>
        <circle cx="-15.999999999999993" cy="27.71281292110204" r="7" fill="#000000"/>
      
        <line x1="0" y1="0" x2="-32" y2="3.91886975727153e-15" stroke="#000000" stroke-width="4" opacity="0.6"/>
        <circle cx="-32" cy="3.91886975727153e-15" r="7" fill="#000000"/>
      
        <line x1="0" y1="0" x2="-16.000000000000014" y2="-27.712812921102028" stroke="#000000" stroke-width="4" opacity="0.6"/>
        <circle cx="-16.000000000000014" cy="-27.712812921102028" r="7" fill="#000000"/>
      
        <line x1="0" y1="0" x2="16.000000000000004" y2="-27.712812921102035" stroke="#000000" stroke-width="4" opacity="0.6"/>
        <circle cx="16.000000000000004" cy="-27.712812921102035" r="7" fill="#000000"/>
      
    <circle cx="56" cy="0" r="5" fill="#3FBD8B" opacity="0.8"/><circle cx="39.59797974644666" cy="39.597979746446654" r="5" fill="#3FBD8B" opacity="0.8"/><circle cx="3.429011037612589e-15" cy="56" r="5" fill="#3FBD8B" opacity="0.8"/><circle cx="-39.597979746446654" cy="39.59797974644666" r="5" fill="#3FBD8B" opacity="0.8"/><circle cx="-56" cy="6.858022075225178e-15" r="5" fill="#3FBD8B" opacity="0.8"/><circle cx="-39.59797974644667" cy="-39.597979746446654" r="5" fill="#3FBD8B" opacity="0.8"/><circle cx="-1.0287033112837767e-14" cy="-56" r="5" fill="#3FBD8B" opacity="0.8"/><circle cx="39.597979746446654" cy="-39.59797974644667" r="5" fill="#3FBD8B" opacity="0.8"/>
  </g>
  
  <!-- Company Name -->
  <text x="220" y="116" font-family="system-ui, -apple-system, sans-serif" font-size="64" font-weight="700" letter-spacing="-1" fill="#000000">Ripple</text>
  <text x="440" y="116" font-family="system-ui, -apple-system, sans-serif" font-size="64" font-weight="300" letter-spacing="1" fill="#000000">Nexus</text>
</svg>